<svg width="451" height="73" viewBox="0 0 451 73" fill="none" xmlns="http://www.w3.org/2000/svg">
<path d="M14.776 60.672C17.08 62.336 20.376 64.128 24.664 66.048C32.728 59.008 38.776 51.072 42.808 42.24L42.424 41.76L26.488 44.448C25.336 43.04 24.728 41.664 24.664 40.32C24.6 38.976 25.144 37.824 26.296 36.864C33.144 38.08 40.408 38.08 48.088 36.864C49.048 38.784 49.624 40.832 49.816 43.008C50.008 45.184 49.688 48.096 48.856 51.744C48.024 55.328 47.256 58.208 46.552 60.384C45.912 62.56 44.664 66.432 42.808 72C39.544 72.256 37.4 71.424 36.376 69.504C40.984 60.096 43.8 53.024 44.824 48.288L44.056 48.096C40.024 58.336 33.912 66.304 25.72 72C16.504 69.248 9.976 65.6 6.136 61.056C2.36 56.512 0.408 50.4 0.28 42.72C0.216 36.64 2.328 29.696 6.616 21.888C13.912 10.048 24.248 3.008 37.624 0.767996C41.336 2.176 44.312 4.608 46.552 8.064C48.856 11.52 50.136 15.072 50.392 18.72C47.256 21.152 44.184 21.824 41.176 20.736C40.6 14.784 38.936 10.208 36.184 7.008L34.744 7.10399C27.256 8.96 20.824 13.376 15.448 20.352C10.072 27.264 7.384 34.816 7.384 43.008C7.384 51.136 9.848 57.024 14.776 60.672ZM68.7483 34.752L69.9003 35.52C73.4203 30.912 77.6123 25.792 82.4763 20.16C85.1003 20.544 87.2443 21.824 88.9083 24C90.5723 26.112 91.4043 28.608 91.4043 31.488C88.1403 33.92 85.2603 34.464 82.7643 33.12C82.9563 30.176 82.3483 28.416 80.9403 27.84C77.8043 31.424 74.1243 35.968 69.9003 41.472C68.1723 52.864 66.4443 63.04 64.7163 72C60.5563 72.384 57.8363 71.616 56.5563 69.696C60.3963 56.448 63.1803 45.312 64.9083 36.288L62.9883 22.56C64.3963 21.152 65.8043 20.224 67.2123 19.776C68.6203 19.328 70.3483 19.264 72.3963 19.584C72.7163 21.12 72.3643 24.608 71.3403 30.048L68.7483 34.752ZM117.213 19.392C122.845 20.864 126.813 23.552 129.117 27.456C131.421 31.296 132.349 35.872 131.901 41.184C121.149 46.304 110.909 49.888 101.181 51.936C101.565 55.52 102.653 58.496 104.445 60.864C106.237 63.168 109.053 65.024 112.893 66.432C119.805 63.936 124.893 61.152 128.157 58.08C129.437 58.08 130.269 58.368 130.653 58.944C131.037 59.52 131.165 60.576 131.037 62.112C129.757 63.84 127.101 65.76 123.069 67.872C119.037 69.984 115.549 71.36 112.605 72C106.269 70.592 101.533 67.776 98.3965 63.552C95.2605 59.264 93.7565 54.144 93.8845 48.192C93.9485 45.632 94.5565 42.464 95.7085 38.688C101.213 29.408 108.381 22.976 117.213 19.392ZM100.893 46.368V47.136C108.957 45.088 117.085 42.24 125.277 38.592C125.277 34.944 124.765 32.064 123.741 29.952C122.781 27.84 120.829 26.048 117.885 24.576L116.541 24.864C112.317 26.912 108.669 30.112 105.597 34.464C102.589 38.816 101.021 42.784 100.893 46.368ZM163.431 19.392C169.063 20.864 173.031 23.552 175.335 27.456C177.639 31.296 178.567 35.872 178.119 41.184C167.367 46.304 157.127 49.888 147.399 51.936C147.783 55.52 148.871 58.496 150.663 60.864C152.455 63.168 155.271 65.024 159.111 66.432C166.023 63.936 171.111 61.152 174.375 58.08C175.655 58.08 176.487 58.368 176.871 58.944C177.255 59.52 177.383 60.576 177.255 62.112C175.975 63.84 173.319 65.76 169.287 67.872C165.255 69.984 161.767 71.36 158.823 72C152.487 70.592 147.751 67.776 144.615 63.552C141.479 59.264 139.975 54.144 140.103 48.192C140.167 45.632 140.775 42.464 141.927 38.688C147.431 29.408 154.599 22.976 163.431 19.392ZM147.111 46.368V47.136C155.175 45.088 163.303 42.24 171.495 38.592C171.495 34.944 170.983 32.064 169.959 29.952C168.999 27.84 167.047 26.048 164.103 24.576L162.759 24.864C158.535 26.912 154.887 30.112 151.815 34.464C148.807 38.816 147.239 42.784 147.111 46.368ZM197.362 34.752L198.226 35.328C203.602 28.032 209.682 22.976 216.466 20.16C219.922 20.48 222.674 21.824 224.722 24.192C226.834 26.56 228.146 29.152 228.658 31.968L225.202 40.512C223.986 51.136 223.09 61.632 222.514 72C218.61 72.448 215.794 71.648 214.066 69.6C215.41 60.768 217.586 48.352 220.594 32.352C220.21 29.728 218.866 27.936 216.562 26.976C210.418 29.664 204.338 34.784 198.322 42.336C196.914 51.424 195.25 61.312 193.33 72C189.234 72.384 186.482 71.616 185.074 69.696C188.658 57.792 191.474 46.656 193.522 36.288L191.506 22.56C194.194 20.064 197.362 19.072 201.01 19.584C201.33 21.12 200.978 24.608 199.954 30.048L197.362 34.752ZM259.186 7.68L241.906 8.928C239.986 7.008 239.73 5.152 241.138 3.36C255.09 2.464 271.09 2.144 289.138 2.4C289.842 2.912 290.066 3.776 289.81 4.992C289.554 6.144 288.85 7.264 287.698 8.352L268.402 7.2L262.162 34.656C261.714 38.56 260.946 44.736 259.858 53.184C258.834 61.632 258.098 67.904 257.65 72C253.106 72.448 250.066 71.488 248.53 69.12C252.818 52.608 256.146 37.408 258.514 23.52L259.186 7.68ZM297.405 34.752L298.557 35.52C302.077 30.912 306.269 25.792 311.133 20.16C313.757 20.544 315.901 21.824 317.565 24C319.229 26.112 320.061 28.608 320.061 31.488C316.797 33.92 313.917 34.464 311.421 33.12C311.613 30.176 311.005 28.416 309.597 27.84C306.461 31.424 302.781 35.968 298.557 41.472C296.829 52.864 295.101 63.04 293.373 72C289.213 72.384 286.493 71.616 285.213 69.696C289.053 56.448 291.837 45.312 293.565 36.288L291.645 22.56C293.053 21.152 294.461 20.224 295.869 19.776C297.277 19.328 299.005 19.264 301.053 19.584C301.373 21.12 301.021 24.608 299.997 30.048L297.405 34.752ZM352.013 49.344V49.152C354.125 37.76 356.269 27.904 358.445 19.584C362.989 19.584 366.029 20.608 367.565 22.656L360.365 36.768C358.957 45.92 357.837 57.664 357.005 72C353.101 72.448 350.253 71.648 348.461 69.6L353.165 57.024L352.013 56.064C348.173 61.056 343.437 66.368 337.805 72C329.037 70.784 323.821 67.776 322.157 62.976L327.053 46.368C328.013 35.488 328.429 26.56 328.301 19.584C330.285 19.328 331.885 19.424 333.101 19.872C334.317 20.256 335.693 21.152 337.229 22.56C336.205 31.648 333.805 44.576 330.029 61.344C330.861 63.328 333.101 64.864 336.749 65.952C343.149 60.192 348.237 54.656 352.013 49.344ZM399.435 55.584C399.435 53.6 395.531 50.944 387.723 47.616C384.779 46.336 381.899 44.672 379.083 42.624C376.331 40.512 374.635 38.304 373.995 36C374.763 31.392 377.323 27.488 381.674 24.288C386.027 21.088 390.891 19.296 396.267 18.912C399.339 20.256 401.835 21.952 403.755 24C405.739 25.984 407.083 28.736 407.787 32.256C407.595 33.28 406.827 34.048 405.483 34.56C404.203 35.008 402.411 35.008 400.107 34.56C399.915 30.72 398.411 26.976 395.595 23.328C392.203 24.288 389.003 25.984 385.995 28.416C383.051 30.848 381.579 32.896 381.579 34.56C381.579 36.352 385.419 39.008 393.099 42.528C396.043 43.872 398.891 45.728 401.643 48.096C404.459 50.4 406.187 52.864 406.827 55.488C405.739 60.48 403.179 64.416 399.147 67.296C395.179 70.176 390.027 71.744 383.691 72C380.171 70.976 377.003 69.024 374.187 66.144C371.435 63.264 369.835 60.416 369.387 57.6C370.539 55.872 371.627 54.752 372.651 54.24C373.739 53.664 375.083 53.536 376.683 53.856C377.835 59.872 380.427 64.512 384.459 67.776C389.195 66.816 392.875 65.152 395.499 62.784C398.123 60.416 399.435 58.016 399.435 55.584ZM448.766 24.768L433.118 25.248C432.67 29.536 431.902 36.16 430.814 45.12C429.79 54.016 429.022 60.832 428.51 65.568C433.502 64.16 437.63 62.304 440.894 60C442.366 59.936 443.294 60.192 443.678 60.768C444.062 61.344 444.19 62.304 444.062 63.648C442.014 65.44 439.262 67.136 435.806 68.736C432.414 70.272 429.182 71.36 426.11 72C422.206 71.168 419.966 69.504 419.39 67.008C424.062 45.76 426.942 32.128 428.03 26.112L415.934 28.416C414.206 26.24 414.27 24 416.126 21.696L428.606 21.6L428.51 7.776C432.286 5.152 435.486 4.832 438.11 6.816L433.694 20.928L448.958 17.952C449.854 18.464 450.27 19.392 450.206 20.736C450.206 22.016 449.726 23.36 448.766 24.768Z" fill="#099E18"/>
</svg>
